<svg width="1890" height="3420" viewBox="0 0 1890 3420" fill="none" xmlns="http://www.w3.org/2000/svg">
<rect x="0.5" y="89.5" width="89" height="1889" transform="rotate(-90 0.5 89.5)" stroke="white" stroke-dasharray="18 18"/>
<rect x="0.5" y="179.5" width="89" height="1889" transform="rotate(-90 0.5 179.5)" stroke="white" stroke-dasharray="18 18"/>
<rect x="0.5" y="269.5" width="89" height="1889" transform="rotate(-90 0.5 269.5)" stroke="white" stroke-dasharray="18 18"/>
<rect x="0.5" y="359.5" width="89" height="1889" transform="rotate(-90 0.5 359.5)" stroke="white" stroke-dasharray="18 18"/>
<rect x="0.5" y="449.5" width="89" height="1889" transform="rotate(-90 0.5 449.5)" stroke="white" stroke-dasharray="18 18"/>
<rect x="0.5" y="539.5" width="89" height="1889" transform="rotate(-90 0.5 539.5)" stroke="white" stroke-dasharray="18 18"/>
<rect x="0.5" y="629.5" width="89" height="1889" transform="rotate(-90 0.5 629.5)" stroke="white" stroke-dasharray="18 18"/>
<rect x="0.5" y="719.5" width="89" height="1889" transform="rotate(-90 0.5 719.5)" stroke="white" stroke-dasharray="18 18"/>
<rect x="0.5" y="809.5" width="89" height="1889" transform="rotate(-90 0.5 809.5)" stroke="white" stroke-dasharray="18 18"/>
<rect x="0.5" y="899.5" width="89" height="1889" transform="rotate(-90 0.5 899.5)" stroke="white" stroke-dasharray="18 18"/>
<rect x="0.5" y="989.5" width="89" height="1889" transform="rotate(-90 0.5 989.5)" stroke="white" stroke-dasharray="18 18"/>
<rect x="0.5" y="1079.5" width="89" height="1889" transform="rotate(-90 0.5 1079.5)" stroke="white" stroke-dasharray="18 18"/>
<rect x="0.5" y="1169.5" width="89" height="1889" transform="rotate(-90 0.5 1169.5)" stroke="white" stroke-dasharray="18 18"/>
<rect x="0.5" y="1259.5" width="89" height="1889" transform="rotate(-90 0.5 1259.5)" stroke="white" stroke-dasharray="18 18"/>
<rect x="0.5" y="1349.5" width="89" height="1889" transform="rotate(-90 0.5 1349.5)" stroke="white" stroke-dasharray="18 18"/>
<rect x="0.5" y="1439.5" width="89" height="1889" transform="rotate(-90 0.5 1439.5)" stroke="white" stroke-dasharray="18 18"/>
<rect x="0.5" y="1529.5" width="89" height="1889" transform="rotate(-90 0.5 1529.5)" stroke="white" stroke-dasharray="18 18"/>
<rect x="0.5" y="1619.5" width="89" height="1889" transform="rotate(-90 0.5 1619.5)" stroke="white" stroke-dasharray="18 18"/>
<rect x="0.5" y="1709.5" width="89" height="1889" transform="rotate(-90 0.5 1709.5)" stroke="white" stroke-dasharray="18 18"/>
<rect x="0.5" y="1799.5" width="89" height="1889" transform="rotate(-90 0.5 1799.5)" stroke="white" stroke-dasharray="18 18"/>
<rect x="0.5" y="1889.5" width="89" height="1889" transform="rotate(-90 0.5 1889.5)" stroke="white" stroke-dasharray="18 18"/>
<rect x="0.5" y="1979.5" width="89" height="1889" transform="rotate(-90 0.5 1979.5)" stroke="white" stroke-dasharray="18 18"/>
<rect x="0.5" y="2069.5" width="89" height="1889" transform="rotate(-90 0.5 2069.5)" stroke="white" stroke-dasharray="18 18"/>
<rect x="0.5" y="2159.5" width="89" height="1889" transform="rotate(-90 0.5 2159.5)" stroke="white" stroke-dasharray="18 18"/>
<rect x="0.5" y="2249.5" width="89" height="1889" transform="rotate(-90 0.5 2249.5)" stroke="white" stroke-dasharray="18 18"/>
<rect x="0.5" y="2339.5" width="89" height="1889" transform="rotate(-90 0.5 2339.5)" stroke="white" stroke-dasharray="18 18"/>
<rect x="0.5" y="2429.5" width="89" height="1889" transform="rotate(-90 0.5 2429.5)" stroke="white" stroke-dasharray="18 18"/>
<rect x="0.5" y="2519.5" width="89" height="1889" transform="rotate(-90 0.5 2519.5)" stroke="white" stroke-dasharray="18 18"/>
<rect x="0.5" y="2609.5" width="89" height="1889" transform="rotate(-90 0.5 2609.5)" stroke="white" stroke-dasharray="18 18"/>
<rect x="0.5" y="2699.5" width="89" height="1889" transform="rotate(-90 0.5 2699.5)" stroke="white" stroke-dasharray="18 18"/>
<rect x="0.5" y="2789.5" width="89" height="1889" transform="rotate(-90 0.5 2789.5)" stroke="white" stroke-dasharray="18 18"/>
<rect x="0.5" y="2879.5" width="89" height="1889" transform="rotate(-90 0.5 2879.5)" stroke="white" stroke-dasharray="18 18"/>
<rect x="0.5" y="2969.5" width="89" height="1889" transform="rotate(-90 0.5 2969.5)" stroke="white" stroke-dasharray="18 18"/>
<rect x="0.5" y="3059.5" width="89" height="1889" transform="rotate(-90 0.5 3059.5)" stroke="white" stroke-dasharray="18 18"/>
<rect x="0.5" y="3149.5" width="89" height="1889" transform="rotate(-90 0.5 3149.5)" stroke="white" stroke-dasharray="18 18"/>
<rect x="0.5" y="3239.5" width="89" height="1889" transform="rotate(-90 0.5 3239.5)" stroke="white" stroke-dasharray="18 18"/>
<rect x="0.5" y="3329.5" width="89" height="1889" transform="rotate(-90 0.5 3329.5)" stroke="white" stroke-dasharray="18 18"/>
<rect x="0.5" y="3419.5" width="89" height="1889" transform="rotate(-90 0.5 3419.5)" stroke="white" stroke-dasharray="18 18"/>
<rect x="0.5" y="0.5" width="89" height="3419" stroke="white" stroke-dasharray="18 18"/>
<rect x="90.5" y="0.5" width="89" height="3419" stroke="white" stroke-dasharray="18 18"/>
<rect x="180.5" y="0.5" width="89" height="3419" stroke="white" stroke-dasharray="18 18"/>
<rect x="270.5" y="0.5" width="89" height="3419" stroke="white" stroke-dasharray="18 18"/>
<rect x="360.5" y="0.5" width="89" height="3419" stroke="white" stroke-dasharray="18 18"/>
<rect x="450.5" y="0.5" width="89" height="3419" stroke="white" stroke-dasharray="18 18"/>
<rect x="540.5" y="0.5" width="89" height="3419" stroke="white" stroke-dasharray="18 18"/>
<rect x="630.5" y="0.5" width="89" height="3419" stroke="white" stroke-dasharray="18 18"/>
<rect x="720.5" y="0.5" width="89" height="3419" stroke="white" stroke-dasharray="18 18"/>
<rect x="810.5" y="0.5" width="89" height="3419" stroke="white" stroke-dasharray="18 18"/>
<rect x="900.5" y="0.5" width="89" height="3419" stroke="white" stroke-dasharray="18 18"/>
<rect x="990.5" y="0.5" width="89" height="3419" stroke="white" stroke-dasharray="18 18"/>
<rect x="1080.5" y="0.5" width="89" height="3419" stroke="white" stroke-dasharray="18 18"/>
<rect x="1170.5" y="0.5" width="89" height="3419" stroke="white" stroke-dasharray="18 18"/>
<rect x="1260.5" y="0.5" width="89" height="3419" stroke="white" stroke-dasharray="18 18"/>
<rect x="1350.5" y="0.5" width="89" height="3419" stroke="white" stroke-dasharray="18 18"/>
<rect x="1440.5" y="0.5" width="89" height="3419" stroke="white" stroke-dasharray="18 18"/>
<rect x="1530.5" y="0.5" width="89" height="3419" stroke="white" stroke-dasharray="18 18"/>
<rect x="1620.5" y="0.5" width="89" height="3419" stroke="white" stroke-dasharray="18 18"/>
<rect x="1710.5" y="0.5" width="89" height="3419" stroke="white" stroke-dasharray="18 18"/>
<rect x="1800.5" y="0.5" width="89" height="3419" stroke="white" stroke-dasharray="18 18"/>
</svg>
